{
	"asset":{
		"generator":"Khronos glTF Blender I/O v3.5.30",
		"version":"2.0"
	},
	"extensionsUsed":[
		"KHR_materials_specular",
		"KHR_materials_ior"
	],
	"scene":0,
	"scenes":[
		{
			"name":"Scene",
			"nodes":[
				0
			]
		}
	],
	"nodes":[
		{
			"mesh":0,
			"name":"Cube"
		}
	],
	"materials":[
		{
			"extensions":{
				"KHR_materials_specular":{
					"specularColorFactor":[
						2.371357614441398,
						2.371357614441398,
						2.371357614441398
					]
				},
				"KHR_materials_ior":{
					"ior":1.4500000476837158
				}
			},
			"name":"Material",
			"pbrMetallicRoughness":{
				"baseColorFactor":[
					0.8000000715255737,
					0.003916682675480843,
					0.06545336544513702,
					1
				],
				"metallicFactor":0,
				"roughnessFactor":0.06692913174629211
			}
		},
		{
			"doubleSided":true,
			"name":"Vidro",
			"pbrMetallicRoughness":{
				"baseColorFactor":[
					0.0003500613383948803,
					0.003156851278617978,
					0.8000000715255737,
					1
				],
				"metallicFactor":0,
				"roughnessFactor":0.5
			}
		},
		{
			"doubleSided":true,
			"name":"Pileu",
			"pbrMetallicRoughness":{
				"baseColorFactor":[
					0,
					0,
					0,
					1
				],
				"metallicFactor":0,
				"roughnessFactor":0.5
			}
		}
	],
	"meshes":[
		{
			"name":"Cube",
			"primitives":[
				{
					"attributes":{
						"POSITION":0,
						"TEXCOORD_0":1,
						"NORMAL":2
					},
					"indices":3,
					"material":0
				},
				{
					"attributes":{
						"POSITION":4,
						"TEXCOORD_0":5,
						"NORMAL":6
					},
					"indices":7,
					"material":1
				},
				{
					"attributes":{
						"POSITION":8,
						"TEXCOORD_0":9,
						"NORMAL":10
					},
					"indices":11,
					"material":2
				}
			]
		}
	],
	"accessors":[
		{
			"bufferView":0,
			"componentType":5126,
			"count":38,
			"max":[
				0.48910385370254517,
				0.7217395901679993,
				1.006278395652771
			],
			"min":[
				-0.4603108763694763,
				0.013093233108520508,
				-0.9355932474136353
			],
			"type":"VEC3"
		},
		{
			"bufferView":1,
			"componentType":5126,
			"count":38,
			"type":"VEC2"
		},
		{
			"bufferView":2,
			"componentType":5126,
			"count":38,
			"type":"VEC3"
		},
		{
			"bufferView":3,
			"componentType":5123,
			"count":66,
			"type":"SCALAR"
		},
		{
			"bufferView":4,
			"componentType":5126,
			"count":16,
			"max":[
				0.48910385370254517,
				0.7217395901679993,
				0.5
			],
			"min":[
				-0.4603108763694763,
				0.388374388217926,
				-0.5
			],
			"type":"VEC3"
		},
		{
			"bufferView":5,
			"componentType":5126,
			"count":16,
			"type":"VEC2"
		},
		{
			"bufferView":6,
			"componentType":5126,
			"count":16,
			"type":"VEC3"
		},
		{
			"bufferView":7,
			"componentType":5123,
			"count":24,
			"type":"SCALAR"
		},
		{
			"bufferView":8,
			"componentType":5126,
			"count":224,
			"max":[
				0.5106558799743652,
				0.1899999976158142,
				0.7848976254463196
			],
			"min":[
				-0.4839213192462921,
				-0.1899999976158142,
				-0.6692703366279602
			],
			"type":"VEC3"
		},
		{
			"bufferView":9,
			"componentType":5126,
			"count":224,
			"type":"VEC2"
		},
		{
			"bufferView":10,
			"componentType":5126,
			"count":224,
			"type":"VEC3"
		},
		{
			"bufferView":11,
			"componentType":5123,
			"count":456,
			"type":"SCALAR"
		}
	],
	"bufferViews":[
		{
			"buffer":0,
			"byteLength":456,
			"byteOffset":0,
			"target":34962
		},
		{
			"buffer":0,
			"byteLength":304,
			"byteOffset":456,
			"target":34962
		},
		{
			"buffer":0,
			"byteLength":456,
			"byteOffset":760,
			"target":34962
		},
		{
			"buffer":0,
			"byteLength":132,
			"byteOffset":1216,
			"target":34963
		},
		{
			"buffer":0,
			"byteLength":192,
			"byteOffset":1348,
			"target":34962
		},
		{
			"buffer":0,
			"byteLength":128,
			"byteOffset":1540,
			"target":34962
		},
		{
			"buffer":0,
			"byteLength":192,
			"byteOffset":1668,
			"target":34962
		},
		{
			"buffer":0,
			"byteLength":48,
			"byteOffset":1860,
			"target":34963
		},
		{
			"buffer":0,
			"byteLength":2688,
			"byteOffset":1908,
			"target":34962
		},
		{
			"buffer":0,
			"byteLength":1792,
			"byteOffset":4596,
			"target":34962
		},
		{
			"buffer":0,
			"byteLength":2688,
			"byteOffset":6388,
			"target":34962
		},
		{
			"buffer":0,
			"byteLength":912,
			"byteOffset":9076,
			"target":34963
		}
	],
	"buffers":[
		{
			"byteLength":9988,
			"uri":"data:application/octet-stream;base64,"
		}
	]
}
